<svg width="34" height="34" viewBox="0 0 34 34" fill="none" xmlns="http://www.w3.org/2000/svg">
<path d="M32.0012 26.0752C30.7796 24.8445 27.8211 23.0484 26.3857 22.3246C24.5164 21.3831 24.3625 21.3062 22.8933 22.3977C21.9133 23.1261 21.2617 23.7768 20.1148 23.5322C18.9678 23.2876 16.4754 21.9084 14.2931 19.7332C12.1107 17.5579 10.6514 14.9934 10.4061 13.8503C10.1607 12.7073 10.8222 12.0635 11.5438 11.0812C12.5607 9.69666 12.4838 9.4659 11.6145 7.59675C10.9368 6.14297 9.08833 3.21233 7.85291 1.99699C6.53134 0.691665 6.53134 0.922425 5.67979 1.27626C4.98652 1.56793 4.32141 1.92247 3.69281 2.33544C2.46201 3.1531 1.77892 3.8323 1.30122 4.85302C0.823513 5.87375 0.608893 8.26673 3.07588 12.7481C5.54286 17.2294 7.27367 19.5209 10.8561 23.093C14.4385 26.6652 17.1931 28.5859 21.2202 30.8442C26.2018 33.6341 28.1126 33.0903 29.1365 32.6134C30.1604 32.1365 30.8427 31.4596 31.662 30.2289C32.076 29.6014 32.4314 28.937 32.7235 28.2443C33.0781 27.3959 33.3089 27.3959 32.0012 26.0752Z" fill="white" fill-opacity="0.92" stroke="#CDA274" stroke-width="2" stroke-miterlimit="10"/>
</svg>
